<?xml version="1.0" standalone="no"?>
<!DOCTYPE svg PUBLIC "-//W3C//DTD SVG 20010904//EN"
 "http://www.w3.org/TR/2001/REC-SVG-20010904/DTD/svg10.dtd">
<svg version="1.0" xmlns="http://www.w3.org/2000/svg"
 width="394.000000pt" height="210.000000pt" viewBox="0 0 394.000000 210.000000"
 preserveAspectRatio="xMidYMid meet">

<g transform="translate(0.000000,210.000000) scale(0.100000,-0.100000)"
fill="#000000" stroke="none">
<path d="M1284 1492 c-6 -4 -16 -17 -23 -29 -22 -43 25 -85 77 -69 26 9 45 52
32 75 -15 28 -60 40 -86 23z m56 -47 c0 -20 -5 -25 -25 -25 -20 0 -25 5 -25
25 0 20 5 25 25 25 20 0 25 -5 25 -25z"/>
<path d="M2470 1430 c-16 -16 -18 -24 -9 -50 20 -57 109 -50 109 9 0 57 -60
81 -100 41z m70 -35 c0 -20 -5 -25 -25 -25 -20 0 -25 5 -25 25 0 20 5 25 25
25 20 0 25 -5 25 -25z"/>
<path d="M1178 1389 c-15 -9 -18 -25 -18 -114 l0 -104 -122 -4 -123 -3 121 -2
c115 -2 122 -1 143 22 20 21 22 32 19 119 -3 88 -4 95 -20 86z"/>
<path d="M2957 1232 c-58 -59 -58 -59 -55 -113 l3 -55 58 63 c57 60 58 63 55
113 l-3 51 -58 -59z"/>
<path d="M2693 1213 c15 -2 37 -2 50 0 12 2 0 4 -28 4 -27 0 -38 -2 -22 -4z"/>
<path d="M1167 1150 l-26 -30 -115 0 c-71 0 -116 -4 -116 -10 0 -13 233 -13
246 0 5 5 63 11 128 12 85 2 121 7 124 16 3 9 -23 12 -108 12 -96 0 -111 2
-106 15 8 23 1 18 -27 -15z"/>
<path d="M1472 1138 c4 -10 95 -14 401 -16 349 -2 397 0 397 13 0 13 -50 15
-401 15 -316 0 -400 -3 -397 -12z"/>
<path d="M2330 1135 c0 -12 18 -15 100 -15 82 0 100 3 100 15 0 12 -18 15
-100 15 -82 0 -100 -3 -100 -15z"/>
<path d="M1157 1073 c-11 -13 -17 -26 -15 -29 7 -7 40 34 37 44 -2 6 -12 -1
-22 -15z"/>
<path d="M1236 1065 c-9 -26 -7 -32 5 -12 6 10 9 21 6 23 -2 3 -7 -2 -11 -11z"/>
<path d="M2513 1023 c21 -6 22 -26 2 -43 -23 -19 -18 -30 13 -29 26 1 26 1 4
8 l-24 6 20 19 c25 22 18 46 -12 45 -16 -1 -17 -2 -3 -6z"/>
<path d="M2571 1016 c-12 -14 -2 -28 29 -39 11 -3 8 -7 -10 -15 -16 -7 -19
-11 -9 -11 25 -1 42 25 35 54 -7 27 -27 33 -45 11z m31 -11 c0 -5 -5 -11 -11
-13 -6 -2 -11 4 -11 13 0 9 5 15 11 13 6 -2 11 -8 11 -13z"/>
<path d="M2644 1016 c-11 -28 0 -61 21 -61 28 0 33 35 6 42 -26 7 -27 20 -3
26 16 4 16 5 -1 6 -10 0 -20 -5 -23 -13z m36 -41 c0 -8 -7 -15 -15 -15 -8 0
-15 7 -15 15 0 8 7 15 15 15 8 0 15 -7 15 -15z"/>
<path d="M2714 1016 c-11 -28 0 -61 21 -61 16 0 20 7 20 35 0 25 -5 36 -18 38
-9 2 -20 -3 -23 -12z m31 -26 c0 -13 -6 -25 -12 -27 -9 -3 -13 6 -13 27 0 21
4 30 13 28 6 -3 12 -15 12 -28z"/>
<path d="M2833 1023 c21 -6 22 -26 2 -43 -23 -19 -18 -30 13 -29 26 1 26 1 4
8 l-24 6 20 19 c25 22 18 46 -12 45 -16 -1 -17 -2 -3 -6z"/>
<path d="M2897 1000 c-18 -29 -18 -30 2 -30 12 0 21 -6 21 -12 0 -10 2 -10 8
0 9 14 3 72 -7 72 -4 0 -15 -13 -24 -30z m19 -17 c-10 -10 -19 5 -10 18 6 11
8 11 12 0 2 -7 1 -15 -2 -18z"/>
<path d="M2962 1023 c11 -3 18 -17 21 -41 l4 -37 1 38 c2 32 5 37 26 37 21 0
25 -5 29 -37 l4 -38 1 37 c1 25 7 38 20 41 9 3 -14 5 -53 5 -38 0 -62 -2 -53
-5z"/>
<path d="M901 958 c1 -24 3 -36 6 -27 2 10 13 19 24 22 28 7 21 41 -9 45 -20
3 -22 -1 -21 -40z m39 17 c0 -8 -7 -15 -15 -15 -8 0 -15 7 -15 15 0 8 7 15 15
15 8 0 15 -7 15 -15z"/>
<path d="M970 980 c-15 -27 4 -60 33 -59 l22 0 -22 9 c-14 6 -23 18 -23 30 0
12 9 24 23 30 l22 9 -22 0 c-13 1 -27 -8 -33 -19z"/>
<path d="M1081 958 c1 -24 3 -36 6 -27 2 10 13 19 24 22 11 3 19 14 19 26 0
16 -6 21 -25 21 -23 0 -25 -4 -24 -42z m39 17 c0 -8 -7 -15 -15 -15 -8 0 -15
7 -15 15 0 8 7 15 15 15 8 0 15 -7 15 -15z"/>
<path d="M1152 993 c11 -3 18 -17 21 -41 l4 -37 1 37 c1 25 7 38 20 41 9 3 -1
5 -23 5 -22 0 -32 -2 -23 -5z"/>
<path d="M2778 973 c7 -3 16 -2 19 1 4 3 -2 6 -13 5 -11 0 -14 -3 -6 -6z"/>
<path d="M1048 943 c7 -3 16 -2 19 1 4 3 -2 6 -13 5 -11 0 -14 -3 -6 -6z"/>
<path d="M2570 871 c0 -10 9 -21 20 -24 26 -7 26 -24 0 -30 -17 -4 -17 -4 2
-3 30 1 36 32 9 41 -26 8 -27 22 -3 28 13 4 11 5 -5 6 -16 1 -23 -5 -23 -18z"/>
<path d="M2863 850 c0 -25 2 -35 4 -22 2 12 2 32 0 45 -2 12 -4 2 -4 -23z"/>
<path d="M2934 876 c-11 -28 0 -61 21 -61 16 0 20 7 20 35 0 25 -5 36 -18 38
-9 2 -20 -3 -23 -12z m36 -26 c0 -20 -5 -30 -15 -30 -10 0 -15 10 -15 30 0 20
5 30 15 30 10 0 15 -10 15 -30z"/>
<path d="M2758 874 c-3 -2 -3 -17 0 -34 3 -20 10 -30 21 -29 10 0 11 2 4 6
-16 6 -17 40 -1 45 8 3 6 6 -4 10 -9 4 -18 5 -20 2z"/>
<path d="M2635 856 c17 -53 16 -52 30 -26 14 25 14 25 15 3 0 -13 4 -23 9 -23
10 0 25 50 16 58 -3 3 -5 -3 -5 -14 -1 -19 -1 -19 -15 0 -14 19 -15 18 -24 -5
-7 -16 -10 -19 -10 -7 -1 9 -5 20 -11 23 -5 3 -8 -1 -5 -9z"/>
<path d="M2732 840 c0 -19 2 -27 5 -17 2 9 2 25 0 35 -3 9 -5 1 -5 -18z"/>
<path d="M2804 855 c-9 -23 3 -45 23 -44 17 1 17 2 1 6 -10 2 -18 13 -18 23 0
10 8 21 18 23 16 4 16 5 -1 6 -10 0 -20 -6 -23 -14z"/>
<path d="M2886 863 c7 -4 14 -19 17 -33 4 -22 5 -21 4 4 -1 17 -9 31 -17 33
-10 3 -11 2 -4 -4z"/>
<path d="M951 818 c1 -24 3 -36 6 -27 2 10 13 19 24 22 28 7 21 41 -9 45 -20
3 -22 -1 -21 -40z m37 20 c-6 -18 -28 -21 -28 -4 0 9 7 16 16 16 9 0 14 -5 12
-12z"/>
<path d="M1022 848 c-26 -26 -6 -69 33 -67 17 1 16 2 -5 8 -18 5 -25 14 -25
31 0 17 7 26 25 31 21 6 22 7 5 8 -12 1 -26 -4 -33 -11z"/>
<path d="M1094 846 c-11 -28 0 -61 21 -61 16 0 20 7 20 35 0 25 -5 36 -18 38
-9 2 -20 -3 -23 -12z m36 -26 c0 -20 -5 -30 -15 -30 -10 0 -15 10 -15 30 0 20
5 30 15 30 10 0 15 -10 15 -30z"/>
</g>
</svg>
